<svg xmlns="http://www.w3.org/2000/svg" width="500" height="302pt" viewBox="0 0 374.69 302"><g transform="translate(4 298)"><path fill="#fff" d="m-4 4v-302h374.692v302z"/><ellipse cx="205.692" cy="-276" fill="none" stroke="#000" rx="38.696" ry="18"/><text x="205.692" y="-271.8" font-family="Times,serif" font-size="14" text-anchor="middle">phoenix</text><ellipse cx="33.692" cy="-190" fill="none" stroke="#000" rx="33.886" ry="18"/><text x="33.692" y="-185.8" font-family="Times,serif" font-size="14" text-anchor="middle">poison</text><path fill="none" stroke="#000" d="m168.912-270.324c-26.484 4.627-62.256 13.551-89.8213 30.324-10.4674 6.369-20.0277 15.827-27.6466 24.74"/><path stroke="#000" d="m54.0367-212.9-9.0141 5.568 3.5747-9.974z"/><text x="125.493" y="-228.8" font-family="Times,serif" font-size="14" text-anchor="middle">~&gt; 1.5 or ~&gt; 2.0</text><ellipse cx="153.692" cy="-190" fill="none" stroke="#000" rx="68.639" ry="18"/><text x="153.692" y="-185.8" font-family="Times,serif" font-size="14" text-anchor="middle">phoenix_pubsub</text><path fill="none" stroke="#000" d="m194.468-258.762c-3.965 5.859-8.401 12.557-12.284 18.762-4.624 7.391-9.459 15.535-13.807 23.025"/><path stroke="#000" d="m171.203-214.868-8.018 6.926 1.949-10.414z"/><text x="213.946" y="-228.8" font-family="Times,serif" font-size="14" text-anchor="middle">~&gt; 1.0.0-rc</text><ellipse cx="286.692" cy="-104" fill="none" stroke="#000" rx="38.211" ry="18"/><text x="286.692" y="-99.8" font-family="Times,serif" font-size="14" text-anchor="middle">cowboy</text><path fill="none" stroke="#000" d="m226.015-260.379c6.738 5.707 13.764 12.722 18.677 20.379 2.999 4.674 22.75 70.213 34.067 108.222"/><path stroke="#000" d="m282.213-132.444-.506 10.582-6.204-8.588z"/><text x="284.927" y="-185.8" font-family="Times,serif" font-size="14" text-anchor="middle">~&gt; 1.0</text><ellipse cx="339.692" cy="-190" fill="none" stroke="#000" rx="27" ry="18"/><text x="339.692" y="-185.8" font-family="Times,serif" font-size="14" text-anchor="middle">plug</text><path fill="none" stroke="#000" d="m231.647-262.583c12.633 6.329 27.896 14.404 41.045 22.583 14.516 9.029 29.966 20.211 42.367 29.613"/><path stroke="#000" d="m317.305-213.075 5.803 8.864-10.064-3.311z"/><text x="311.927" y="-228.8" font-family="Times,serif" font-size="14" text-anchor="middle">~&gt; 1.1</text><ellipse cx="245.692" cy="-18" fill="none" stroke="#000" rx="34.353" ry="18"/><text x="245.692" y="-13.8" font-family="Times,serif" font-size="14" text-anchor="middle">cowlib</text><path fill="none" stroke="#000" d="m271.803-87.2383c-4.745 5.7077-9.648 12.432-13.08 19.2383-3.449 6.838-6.058 14.6875-8.001 22.0713"/><path stroke="#000" d="m254.077-44.9017-5.675 8.9471-1.143-10.5329z"/><text x="283.177" y="-56.8" font-family="Times,serif" font-size="14" text-anchor="middle">~&gt; 1.0.0</text><ellipse cx="327.692" cy="-18" fill="none" stroke="#000" rx="29.993" ry="18"/><text x="327.692" y="-13.8" font-family="Times,serif" font-size="14" text-anchor="middle">ranch</text><path fill="none" stroke="#000" d="m296.036-86.3996c3.161 5.7749 6.65 12.3272 9.656 18.3996 3.584 7.2393 7.261 15.1899 10.559 22.5414"/><path stroke="#000" d="m319.622-46.4891.845 10.5611-7.246-7.729z"/><text x="330.927" y="-56.8" font-family="Times,serif" font-size="14" text-anchor="middle">~&gt; 1.0</text><path fill="none" stroke="#000" d="m329.723-173.2c-7.625 12.085-18.291 28.99-27.096 42.945"/><path stroke="#000" d="m305.457-128.181-8.297 6.59 2.377-10.325z"/><text x="333.927" y="-142.8" font-family="Times,serif" font-size="14" text-anchor="middle">~&gt; 1.0</text></g></svg>